<svg xmlns="http://www.w3.org/2000/svg" width="17.956" height="21.996" viewBox="0 0 17.956 21.996">
  <g id="Group_15066" data-name="Group 15066" transform="translate(-41.667 1)">
    <path id="Path_9436" data-name="Path 9436" d="M58.552,16.12l-1.367-2.279a6.77,6.77,0,0,1-.965-3.483v-2a5.581,5.581,0,0,0-3.982-5.339V1.593a1.593,1.593,0,1,0-3.185,0V3.022a5.581,5.581,0,0,0-3.982,5.339v2a6.774,6.774,0,0,1-.964,3.482l-1.367,2.279a.4.4,0,0,0,.341.6H58.21a.4.4,0,0,0,.342-.6Z" transform="translate(0)" fill="none" stroke="#2fc06e" stroke-width="2"/>
    <path id="Path_9437" data-name="Path 9437" d="M191.329,470.926a2.784,2.784,0,0,0,2.508-1.593h-5.015A2.784,2.784,0,0,0,191.329,470.926Z" transform="translate(-140.684 -450.931)" fill="none" stroke="#2fc06e" stroke-width="2"/>
  </g>
</svg>
