<svg xmlns="http://www.w3.org/2000/svg" width="56.467" height="46.24" viewBox="0 0 56.467 46.24">
  <g id="Group_22055" data-name="Group 22055" transform="translate(-1264 -838.76)">
    <g id="Path_21575" data-name="Path 21575" transform="translate(1264 840.633)" fill="#fff">
      <path d="M 53.24069213867188 43.86680221557617 L 3.22671365737915 43.86680221557617 C 1.723203659057617 43.86680221557617 0.5000036358833313 42.64362335205078 0.5000036358833313 41.14012145996094 L 0.5000036358833313 3.226673126220703 C 0.5000036358833313 1.723183035850525 1.723203659057617 0.5000030398368835 3.22671365737915 0.5000030398368835 L 53.24069213867188 0.5000030398368835 C 54.74420547485352 0.5000030398368835 55.96740341186523 1.723183035850525 55.96740341186523 3.226673126220703 L 55.96740341186523 41.14012145996094 C 55.96740341186523 42.64362335205078 54.74420547485352 43.86680221557617 53.24069213867188 43.86680221557617 Z" stroke="none"/>
      <path d="M 3.226703643798828 1.000003814697266 C 1.998893737792969 1.000003814697266 1.000003814697266 1.998882293701172 1.000003814697266 3.226673126220703 L 1.000003814697266 41.14012145996094 C 1.000003814697266 42.36792373657227 1.998893737792969 43.36680221557617 3.226703643798828 43.36680221557617 L 53.24069213867188 43.36680221557617 C 54.46850204467773 43.36680221557617 55.46740341186523 42.36792373657227 55.46740341186523 41.14012145996094 L 55.46740341186523 3.226673126220703 C 55.46740341186523 1.998882293701172 54.46850204467773 1.000003814697266 53.24069213867188 1.000003814697266 L 3.226703643798828 1.000003814697266 M 3.226703643798828 3.814697265625e-06 L 53.24069213867188 3.814697265625e-06 C 55.02275466918945 3.814697265625e-06 56.46740341186523 1.444633483886719 56.46740341186523 3.226673126220703 L 56.46740341186523 41.14012145996094 C 56.46740341186523 42.92217254638672 55.02275466918945 44.36680221557617 53.24069213867188 44.36680221557617 L 3.226703643798828 44.36680221557617 C 1.444644927978516 44.36680221557617 3.814697265625e-06 42.92217254638672 3.814697265625e-06 41.14012145996094 L 3.814697265625e-06 3.226673126220703 C 3.814697265625e-06 1.444633483886719 1.444644927978516 3.814697265625e-06 3.226703643798828 3.814697265625e-06 Z" stroke="none" fill="#1c4d92"/>
    </g>
    <path id="Path_21563" data-name="Path 21563" d="M53.193,44.88a3.175,3.175,0,0,1,3.165,3.165v2.8H0v-2.8A3.175,3.175,0,0,1,3.165,44.88Z" transform="translate(1264.11 793.88)" fill="#0a5f87"/>
    <g id="Group_22037" data-name="Group 22037" transform="translate(1264.11 838.76)" opacity="0.25">
      <path id="Path_21548" data-name="Path 21548" d="M3.165,44.88A3.175,3.175,0,0,0,0,48.045v2.8H12.756l3.429-5.965Z" transform="translate(0 -44.88)" fill="#fff"/>
    </g>
    <ellipse id="Ellipse_1863" data-name="Ellipse 1863" cx="0.902" cy="0.902" rx="0.902" ry="0.902" transform="translate(1267.669 840.84)" fill="#2fc06e"/>
    <ellipse id="Ellipse_1864" data-name="Ellipse 1864" cx="0.902" cy="0.902" rx="0.902" ry="0.902" transform="translate(1270.373 840.84)" fill="#fff"/>
    <ellipse id="Ellipse_1865" data-name="Ellipse 1865" cx="0.902" cy="0.902" rx="0.902" ry="0.902" transform="translate(1273.076 840.84)" fill="#fff"/>
    <g id="Group_22039" data-name="Group 22039" transform="translate(1280.344 851.024)">
      <rect id="Rectangle_6479" data-name="Rectangle 6479" width="0.553" height="0.553" transform="translate(11.668 0.301)" fill="#0079b2"/>
      <path id="Path_21558" data-name="Path 21558" d="M254.041,197.515h-.553V196.4h.553Zm0-2.223h-.553v-1.111h.553Zm0-2.223h-.553v-1.111h.553Zm0-2.223h-.553v-1.111h.553Zm0-2.223h-.553v-1.111h.553Zm0-2.224h-.553v-1.111h.553Zm0-2.223h-.553v-1.111h.553Zm0-2.223h-.553v-1.111h.553Zm0-2.223h-.553v-1.111h.553Zm0-2.223h-.553V176.4h.553Zm0-2.223h-.553v-1.111h.553Z" transform="translate(-241.82 -172.209)" fill="#0079b2"/>
      <rect id="Rectangle_6480" data-name="Rectangle 6480" width="0.553" height="0.553" transform="translate(11.668 26.417)" fill="#0079b2"/>
      <rect id="Rectangle_6481" data-name="Rectangle 6481" width="0.553" height="0.553" transform="translate(23.483 6.286)" fill="#0079b2"/>
      <path id="Path_21559" data-name="Path 21559" d="M361.385,239.129h-.553v-1.145h.553Zm0-2.288h-.553V235.7h.553Zm0-2.289h-.553v-1.145h.553Zm0-2.288h-.553V231.12h.553Zm0-2.288h-.553v-1.145h.553Z" transform="translate(-337.349 -220.849)" fill="#0079b2"/>
      <rect id="Rectangle_6482" data-name="Rectangle 6482" width="0.553" height="0.553" transform="translate(23.483 19.426)" fill="#0079b2"/>
      <path id="Path_21560" data-name="Path 21560" d="M159.432,170.346l-.512-.31.287-.474.225.136.437-.264.287.474Zm-1.46-.882-.947-.572.287-.474.948.572Zm3.131-.127-.287-.474.948-.572.287.474Zm-5.028-1.018-.947-.572.287-.474.947.572Zm6.925-.127-.287-.474.947-.572.287.474Zm-8.822-1.018-.949-.572.285-.474.949.572Zm10.718-.127-.287-.474.948-.572.287.474Zm-12.615-1.018-.948-.572.287-.474.947.572Zm14.512-.129-.287-.474.948-.572.287.474Zm-16.409-1.016-.949-.572.287-.474.949.572Zm18.3-.129-.285-.474.949-.572.285.474Zm-20.2-1.016-.948-.572.12-.2-.173-.326.979-.52.259.49-.546.291.6.361Zm22.1-.129-.287-.474.8-.486.042.069.083-.155.581.308Zm-.6-1.076-.979-.52.259-.49.979.52Zm-20.287-.44-.259-.49.979-.52.259.49Zm18.33-.6-.979-.52.259-.49.979.52Zm-16.374-.442-.259-.488.979-.52.259.49Zm14.417-.6-.979-.52.259-.49.979.52Zm-12.46-.44-.259-.49.979-.52.259.49Zm10.5-.6-.977-.52.259-.49.977.52Zm-8.547-.44-.259-.49.979-.52.259.49Zm6.59-.6-.979-.52.259-.49.979.52Zm-4.632-.44-.259-.49.979-.52.259.49Zm2.675-.6-.9-.479.083-.155-.157-.294.2-.109,1.036.549Z" transform="translate(-147.488 -156.304)" fill="#0079b2"/>
      <path id="Path_21561" data-name="Path 21561" d="M159.432,292.12l-.512-.31.285-.474.227.137.437-.262.285.474Zm-1.46-.881-.947-.572.287-.474.948.572Zm3.131-.129-.287-.474.948-.572.287.474Zm-5.028-1.018-.949-.572.287-.474.949.572Zm6.925-.127-.287-.474.947-.572.287.474Zm-8.822-1.018-.948-.572.287-.474.948.572Zm10.718-.127-.287-.474.949-.572.287.474ZM152.282,287.8l-.948-.572.287-.474.947.572Zm14.512-.127-.287-.474.948-.572.287.474Zm-16.409-1.018-.949-.572.285-.474.949.572Zm18.306-.127-.287-.474.947-.572.287.474Zm-20.2-1.018-.948-.572.12-.2-.173-.324.979-.52.259.49-.546.291.6.361Zm22.1-.127-.287-.474.8-.486.042.069.083-.155.581.308Zm-.594-1.076-.979-.52.259-.49.979.52Zm-20.289-.44-.259-.49.979-.52.259.49Zm18.33-.6-.979-.52.259-.49.979.52Zm-16.374-.44-.259-.49.979-.52.259.49Zm14.417-.6-.979-.52.259-.49.979.52Zm-12.46-.442-.259-.49.979-.52.259.49Zm10.5-.6-.979-.52.259-.49.979.52Zm-8.547-.44-.259-.49.979-.52.259.49Zm6.59-.6-.979-.52.259-.49.979.52Zm-4.632-.44-.259-.49.979-.52.259.49Zm2.675-.6-.9-.479.083-.155-.157-.294.2-.109,1.036.549Z" transform="translate(-147.488 -264.676)" fill="#0079b2"/>
    </g>
    <g id="Group_22040" data-name="Group 22040" transform="translate(1302.597 855.833)">
      <ellipse id="Ellipse_1856" data-name="Ellipse 1856" cx="1.508" cy="1.508" rx="1.508" ry="1.508" fill="#2fc06e"/>
      <ellipse id="Ellipse_1857" data-name="Ellipse 1857" cx="1.508" cy="1.508" rx="1.508" ry="1.508" transform="translate(0 13.675)" fill="#2fc06e"/>
    </g>
    <g id="Group_22041" data-name="Group 22041" transform="translate(1280.197 857.31)">
      <rect id="Rectangle_6483" data-name="Rectangle 6483" width="0.553" height="0.553" fill="#0079b2"/>
      <path id="Path_21562" data-name="Path 21562" d="M146.7,239.129h-.553v-1.145h.553Zm0-2.288h-.553V235.7h.553Zm0-2.289h-.553v-1.145h.553Zm0-2.288h-.553V231.12h.553Zm0-2.288h-.553v-1.145h.553Z" transform="translate(-146.144 -227.134)" fill="#0079b2"/>
      <rect id="Rectangle_6484" data-name="Rectangle 6484" width="0.553" height="0.553" transform="translate(0 13.14)" fill="#0079b2"/>
    </g>
    <g id="Group_22042" data-name="Group 22042" transform="translate(1278.966 849.443)">
      <ellipse id="Ellipse_1858" data-name="Ellipse 1858" cx="1.508" cy="1.508" rx="1.508" ry="1.508" transform="translate(0 6.39)" fill="#2fc06e"/>
      <ellipse id="Ellipse_1859" data-name="Ellipse 1859" cx="1.508" cy="1.508" rx="1.508" ry="1.508" transform="translate(0 20.065)" fill="#2fc06e"/>
      <ellipse id="Ellipse_1860" data-name="Ellipse 1860" cx="1.508" cy="1.508" rx="1.508" ry="1.508" transform="translate(11.816 13.711)" fill="#2fc06e"/>
      <ellipse id="Ellipse_1861" data-name="Ellipse 1861" cx="1.508" cy="1.508" rx="1.508" ry="1.508" transform="translate(11.594 2.976) rotate(-80.783)" fill="#2fc06e"/>
      <ellipse id="Ellipse_1862" data-name="Ellipse 1862" cx="1.508" cy="1.508" rx="1.508" ry="1.508" transform="translate(11.816 27.198)" fill="#2fc06e"/>
    </g>
    <path id="Path_21569" data-name="Path 21569" d="M186.409,60.751h-28.33a1.588,1.588,0,0,1-1.583-1.583h0a1.588,1.588,0,0,1,1.583-1.583h28.33a1.588,1.588,0,0,1,1.583,1.583h0A1.589,1.589,0,0,1,186.409,60.751Z" transform="translate(1124.84 782.574)" fill="#fff"/>
    <path id="Path_21570" data-name="Path 21570" d="M178.1,65.072l.217.833c.048.183.092.352.122.523h.011c.037-.167.092-.342.146-.52l.268-.837h.252l.254.821c.062.2.109.368.146.535h.011a5.054,5.054,0,0,1,.125-.532l.232-.824h.294l-.528,1.64h-.271l-.252-.782a5.259,5.259,0,0,1-.146-.539h-.007a5.168,5.168,0,0,1-.148.542l-.264.778h-.271l-.495-1.64Z" transform="translate(1105.888 775.91)"/>
    <path id="Path_21571" data-name="Path 21571" d="M201.089,65.072l.217.833c.048.183.092.352.122.523h.011c.037-.167.092-.342.146-.52l.268-.837h.252l.254.821c.062.2.109.368.146.535h.011a5.058,5.058,0,0,1,.125-.532l.232-.824h.292l-.528,1.64h-.271l-.252-.782a5.263,5.263,0,0,1-.146-.539h-.007a5.165,5.165,0,0,1-.148.542l-.264.778h-.268l-.495-1.64Z" transform="translate(1085.427 775.91)"/>
    <path id="Path_21572" data-name="Path 21572" d="M224.049,65.058l.217.833c.048.183.092.352.122.523h.011c.037-.167.092-.342.146-.52l.268-.837h.252l.254.821c.062.2.109.368.146.535h.011a5.056,5.056,0,0,1,.125-.532l.232-.824h.294L225.6,66.7h-.271l-.25-.784a5.263,5.263,0,0,1-.146-.539h-.007a5.172,5.172,0,0,1-.148.542l-.264.778h-.271l-.495-1.64h.3Z" transform="translate(1064.994 775.925)"/>
    <path id="Path_21573" data-name="Path 21573" d="M246.192,76.645a.2.2,0,0,1,.2-.213.213.213,0,1,1-.2.213Z" transform="translate(1045.017 765.801)"/>
    <g id="Group_22043" data-name="Group 22043" transform="translate(1314.89 840.468)">
      <rect id="Rectangle_6478" data-name="Rectangle 6478" width="2.533" height="0.44" transform="translate(0 1.094)" fill="#fff"/>
      <path id="Path_21556" data-name="Path 21556" d="M472.057,63.029l-.314-.313,1-1-1-1,.314-.313,1.312,1.314Z" transform="translate(-470.597 -60.4)" fill="#fff"/>
    </g>
  </g>
</svg>
