<svg xmlns="http://www.w3.org/2000/svg" width="79.621" height="62.882" viewBox="0 0 79.621 62.882">
  <g id="Group_22053" data-name="Group 22053" transform="translate(-704.316 -822)">
    <g id="Group_22046" data-name="Group 22046" transform="translate(704.316 792.616)">
      <path id="Path_21578" data-name="Path 21578" d="M75.554,232.106V199.536a1.42,1.42,0,0,0-1.416-1.416H28.832a1.42,1.42,0,0,0-1.416,1.416v32.571Z" transform="translate(-23.152 -142.495)" fill="#0a5f87"/>
      <rect id="Rectangle_6490" data-name="Rectangle 6490" width="44.598" height="30.447" transform="translate(6.033 57.397)" fill="#fff"/>
      <rect id="Rectangle_6491" data-name="Rectangle 6491" width="56.645" height="0.885" transform="translate(0 89.607)" fill="#edf4fe"/>
      <path id="Path_21579" data-name="Path 21579" d="M53.876,424.122H2.9l-2.832-1.77H56.709Z" transform="translate(-0.054 -331.857)" fill="#0a5f87"/>
      <g id="Group_22047" data-name="Group 22047" transform="translate(23.561 89.611)" opacity="0.7">
        <path id="Path_21580" data-name="Path 21580" d="M161.028,416.664H151.5a1.093,1.093,0,0,0,1.089.885h7.348A1.093,1.093,0,0,0,161.028,416.664Z" transform="translate(-151.504 -416.664)" fill="#fff"/>
      </g>
      <g id="Group_22048" data-name="Group 22048" transform="translate(22.15 63.444)">
        <rect id="Rectangle_6492" data-name="Rectangle 6492" width="12.365" height="0.622" transform="translate(0 17.728)" fill="#2fc06e"/>
        <rect id="Rectangle_6493" data-name="Rectangle 6493" width="12.365" height="0.622" fill="#2fc06e"/>
      </g>
      <g id="Group_22049" data-name="Group 22049" transform="translate(13.21 69.292)">
        <path id="Path_21581" data-name="Path 21581" d="M86.181,286.008l.88,3.38c.193.741.372,1.428.494,2.116H87.6c.151-.672.372-1.387.591-2.1l1.086-3.394h1.016l1.031,3.325c.248.8.439,1.5.591,2.171h.04a20.231,20.231,0,0,1,.509-2.157l.948-3.338h1.2l-2.144,6.65h-1.1l-1.016-3.174a21.912,21.912,0,0,1-.591-2.185h-.027a19.684,19.684,0,0,1-.6,2.2l-1.072,3.16h-1.1l-2.006-6.65h1.237Z" transform="translate(-84.944 -286.008)"/>
        <path id="Path_21582" data-name="Path 21582" d="M152.287,286.008l.88,3.38c.193.741.372,1.428.5,2.116h.04c.151-.672.372-1.387.591-2.1l1.086-3.394H156.4l1.031,3.325c.248.8.439,1.5.591,2.171h.041a19.9,19.9,0,0,1,.508-2.157l.948-3.338h1.2l-2.144,6.65h-1.1l-1.016-3.174a22.259,22.259,0,0,1-.592-2.185h-.027a19.684,19.684,0,0,1-.6,2.2l-1.072,3.16h-1.1l-2.005-6.65h1.239Z" transform="translate(-140.768 -286.008)"/>
        <path id="Path_21583" data-name="Path 21583" d="M218.414,286.008l.88,3.38c.193.741.372,1.428.494,2.116h.041c.151-.672.372-1.387.591-2.1l1.086-3.394h1.016l1.031,3.325c.248.8.439,1.5.591,2.171h.04a20.239,20.239,0,0,1,.509-2.157l.948-3.338h1.2l-2.144,6.65h-1.1l-1.016-3.174a21.912,21.912,0,0,1-.591-2.185h-.027a19.681,19.681,0,0,1-.6,2.2l-1.072,3.16h-1.1l-2.005-6.65h1.238Z" transform="translate(-196.612 -286.008)"/>
      </g>
      <circle id="Ellipse_1868" data-name="Ellipse 1868" cx="21.274" cy="21.274" r="21.274" transform="translate(37.073 29.384)" fill="#2fc06e"/>
      <g id="Group_22050" data-name="Group 22050" transform="translate(41.564 33.875)">
        <rect id="Rectangle_6494" data-name="Rectangle 6494" width="1.244" height="32.521" transform="translate(16.162 0.524)" fill="#fff"/>
        <rect id="Rectangle_6495" data-name="Rectangle 6495" width="33.565" height="1.244" transform="translate(0 16.161)" fill="#fff"/>
        <path id="Path_21584" data-name="Path 21584" d="M327.33,92.069c-5.254-5.439-7.815-11.234-7.614-17.227.318-9.453,7.344-15.915,7.644-16.186l.836.922c-.07.063-6.941,6.4-7.234,15.317-.187,5.638,2.257,11.125,7.264,16.308Z" transform="translate(-311.551 -58.595)" fill="#fff"/>
        <path id="Path_21585" data-name="Path 21585" d="M376.79,92.076l-.895-.865c5.01-5.187,7.453-10.678,7.264-16.32-.3-8.93-7.165-15.241-7.234-15.3l.836-.923c.3.271,7.325,6.733,7.644,16.186C384.606,80.841,382.044,86.636,376.79,92.076Z" transform="translate(-359.004 -58.602)" fill="#fff"/>
        <path id="Path_21586" data-name="Path 21586" d="M310.216,98.6c-7.108,0-11.7-6.453-11.9-6.728l1.019-.713c.044.062,4.425,6.2,10.876,6.2s10.952-6.142,11-6.2l1.01.725C322.026,92.151,317.32,98.6,310.216,98.6Z" transform="translate(-293.492 -86.037)" fill="#fff"/>
        <path id="Path_21587" data-name="Path 21587" d="M321.211,200.775c-.045-.062-4.54-6.2-11-6.2s-10.832,6.135-10.875,6.2l-1.02-.712c.193-.276,4.789-6.728,11.9-6.728s11.81,6.448,12.007,6.722Z" transform="translate(-293.492 -172.324)" fill="#fff"/>
        <path id="Path_21588" data-name="Path 21588" d="M284.055,59.508a15.539,15.539,0,1,1-15.539,15.539,15.556,15.556,0,0,1,15.539-15.539m0-1.244a16.783,16.783,0,1,0,16.783,16.783,16.783,16.783,0,0,0-16.783-16.783Z" transform="translate(-267.272 -58.264)" fill="#fff"/>
      </g>
    </g>
  </g>
</svg>
