<svg xmlns="http://www.w3.org/2000/svg" width="141.005" height="43.849" viewBox="0 0 141.005 43.849">
	<g id="Group_16788" data-name="Group 16788" transform="translate(-374.999 -18)">
		<g id="Group_16765" data-name="Group 16765" transform="translate(-2.728 1.224)">
			<g id="Group_16763" data-name="Group 16763" transform="translate(433.728 20.775)">
				<path id="Path_17339" data-name="Path 17339" d="M162.664,43.362l1.4-.123h.379a.624.624,0,0,1,.454.174.6.6,0,0,1,.179.449v1.094a.558.558,0,0,1-.179.4.785.785,0,0,1-.454.22,14.693,14.693,0,0,1-2.718.2q-4.394,0-4.394-4.6V31.559a.616.616,0,0,1,.179-.454.6.6,0,0,1,.444-.179h2.289a.6.6,0,0,1,.444.179.616.616,0,0,1,.179.454v3.414h2.851a.614.614,0,0,1,.444.173.6.6,0,0,1,.179.45v1.216a.6.6,0,0,1-.179.449.612.612,0,0,1-.444.174h-2.851v3.75a2.39,2.39,0,0,0,.49,1.61A1.644,1.644,0,0,0,162.664,43.362Z" transform="translate(-157.331 -30.926)" fill="#fff"/>
				<path id="Path_17340" data-name="Path 17340" d="M168.873,45.406a3.046,3.046,0,0,1-1.354-2.657,3,3,0,0,1,1.354-2.636,6.089,6.089,0,0,1,3.489-.92h3.382a2.233,2.233,0,0,0-.5-1.665,2.553,2.553,0,0,0-1.753-.471,2.156,2.156,0,0,0-1.757.619,1.549,1.549,0,0,1-1.241.618H168.97a.617.617,0,0,1-.455-.179.6.6,0,0,1-.178-.444q0-2.934,5.569-2.933a6.411,6.411,0,0,1,3.9,1.088,3.912,3.912,0,0,1,1.471,3.367v6.326a.6.6,0,0,1-.623.623h-1.972a.6.6,0,0,1-.45-.179.616.616,0,0,1-.173-.444V45.2a6.212,6.212,0,0,1-3.725,1.149A5.968,5.968,0,0,1,168.873,45.406Zm2.605-3.546a1.119,1.119,0,0,0-.413.9,1.134,1.134,0,0,0,.429.91,1.848,1.848,0,0,0,1.216.358,5.621,5.621,0,0,0,3.035-.92V41.512h-3.136A1.7,1.7,0,0,0,171.478,41.86Z" transform="translate(-158.834 -31.488)" fill="#fff"/>
				<path id="Path_17341" data-name="Path 17341" d="M184.263,45.518V35.575a.619.619,0,0,1,.178-.455.6.6,0,0,1,.445-.179h2.288a.6.6,0,0,1,.45.179.626.626,0,0,1,.174.455v.644a6.6,6.6,0,0,1,1.446-1.1,3.562,3.562,0,0,1,1.711-.383,3.989,3.989,0,0,1,3.607,1.962,5.454,5.454,0,0,1,3.9-1.967,4.2,4.2,0,0,1,3.157,1.206,5.176,5.176,0,0,1,1.16,3.715v5.866a.6.6,0,0,1-.624.623h-2.278a.617.617,0,0,1-.455-.179.6.6,0,0,1-.179-.444V39.652q0-2.453-1.777-2.443-1.083,0-2.238,1.564a6.347,6.347,0,0,1,.061.879v5.866a.6.6,0,0,1-.179.449.611.611,0,0,1-.444.174h-2.279a.615.615,0,0,1-.454-.179.6.6,0,0,1-.179-.444V39.652q0-2.453-1.777-2.443a2.829,2.829,0,0,0-2.176,1.461v6.847a.6.6,0,0,1-.179.449.614.614,0,0,1-.445.174h-2.288a.595.595,0,0,1-.623-.623Z" transform="translate(-161.303 -31.487)" fill="#fff"/>
				<path id="Path_17342" data-name="Path 17342" d="M214.262,43.362l1.4-.123h.379a.624.624,0,0,1,.454.174.6.6,0,0,1,.179.449v1.094a.558.558,0,0,1-.179.4.785.785,0,0,1-.454.22,14.693,14.693,0,0,1-2.718.2q-4.394,0-4.394-4.6V31.559a.616.616,0,0,1,.179-.454.6.6,0,0,1,.444-.179h2.289a.6.6,0,0,1,.444.179.616.616,0,0,1,.179.454v3.414h2.851a.613.613,0,0,1,.444.173.6.6,0,0,1,.179.45v1.216a.6.6,0,0,1-.179.449.61.61,0,0,1-.444.174h-2.851v3.75a2.39,2.39,0,0,0,.49,1.61A1.644,1.644,0,0,0,214.262,43.362Z" transform="translate(-164.941 -30.926)" fill="#fff"/>
				<path id="Path_17343" data-name="Path 17343" d="M220.691,44.854a5.636,5.636,0,0,1-1.574-4.3,5.67,5.67,0,0,1,1.583-4.312,6.115,6.115,0,0,1,4.394-1.507,6.18,6.18,0,0,1,4.384,1.466,5.463,5.463,0,0,1,1.574,4.2v.582a.613.613,0,0,1-.633.633h-7.694a2.7,2.7,0,0,0,.72,1.829,2.847,2.847,0,0,0,1.977.573,2.3,2.3,0,0,0,1.859-.614,1.569,1.569,0,0,1,1.236-.623h1.523a.611.611,0,0,1,.633.633q0,2.934-5.589,2.923A6.128,6.128,0,0,1,220.691,44.854Zm2.013-5.385h4.751q-.1-2.412-2.366-2.412T222.7,39.469Z" transform="translate(-166.444 -31.488)" fill="#fff"/>
				<path id="Path_17344" data-name="Path 17344" d="M235.321,45.518V35.575a.617.617,0,0,1,.179-.455.6.6,0,0,1,.444-.179h2.289a.6.6,0,0,1,.45.179.629.629,0,0,1,.173.455v.644a6.642,6.642,0,0,1,1.446-1.1,3.568,3.568,0,0,1,1.712-.383,3.989,3.989,0,0,1,3.607,1.962,5.453,5.453,0,0,1,3.9-1.967,4.2,4.2,0,0,1,3.158,1.206,5.176,5.176,0,0,1,1.159,3.715v5.866a.6.6,0,0,1-.623.623h-2.279a.616.616,0,0,1-.454-.179.6.6,0,0,1-.179-.444V39.652q0-2.453-1.778-2.443-1.083,0-2.238,1.564a6.352,6.352,0,0,1,.061.879v5.866a.6.6,0,0,1-.179.449.613.613,0,0,1-.444.174h-2.279a.617.617,0,0,1-.455-.179.606.606,0,0,1-.178-.444V39.652q0-2.453-1.778-2.443a2.829,2.829,0,0,0-2.176,1.461v6.847a.6.6,0,0,1-.178.449.614.614,0,0,1-.445.174h-2.289a.6.6,0,0,1-.623-.623Z" transform="translate(-168.833 -31.487)" fill="#fff"/>
			</g>
			<g id="Group_16764" data-name="Group 16764" transform="translate(433.728 38.978)">
				<path id="Path_17346" data-name="Path 17346" d="M321.118,45.8a3.046,3.046,0,0,1-1.354-2.657,3,3,0,0,1,1.354-2.636,6.089,6.089,0,0,1,3.489-.92h3.382a2.236,2.236,0,0,0-.5-1.666,2.557,2.557,0,0,0-1.753-.47,2.159,2.159,0,0,0-1.757.618,1.547,1.547,0,0,1-1.241.618h-1.523a.619.619,0,0,1-.455-.178.607.607,0,0,1-.178-.445q0-2.932,5.569-2.933a6.409,6.409,0,0,1,3.9,1.089,3.911,3.911,0,0,1,1.471,3.367v6.325a.594.594,0,0,1-.623.623h-1.972a.6.6,0,0,1-.449-.178.614.614,0,0,1-.174-.445V45.6a6.212,6.212,0,0,1-3.725,1.149A5.968,5.968,0,0,1,321.118,45.8Zm2.605-3.546a1.122,1.122,0,0,0-.414.9,1.134,1.134,0,0,0,.429.91,1.853,1.853,0,0,0,1.217.357,5.617,5.617,0,0,0,3.034-.919V41.911h-3.136A1.705,1.705,0,0,0,323.723,42.258Z" transform="translate(-319.764 -31.887)" fill="#0a5f87"/>
				<path id="Path_17347" data-name="Path 17347" d="M337.19,44.281a5.19,5.19,0,0,1-1.425-3.883,4.824,4.824,0,0,1,1.624-3.873,6.975,6.975,0,0,1,4.66-1.39,15.049,15.049,0,0,1,3.075.332,8.074,8.074,0,0,1,2.4.812v9.462a3.879,3.879,0,0,1-1.5,3.368,7.082,7.082,0,0,1-4.215,1.088,10.233,10.233,0,0,1-4.179-.679,2.311,2.311,0,0,1-1.466-2.243.612.612,0,0,1,.633-.633h1.523a1.436,1.436,0,0,1,1.175.541,2.446,2.446,0,0,0,2,.695,3.042,3.042,0,0,0,1.967-.47,2.151,2.151,0,0,0,.531-1.666v-.48a12.33,12.33,0,0,1-3.055.419A5.113,5.113,0,0,1,337.19,44.281Zm4.644-6.672q-2.422-.01-2.422,2.795t2.361,2.8a9.309,9.309,0,0,0,2.217-.307V37.834A8.2,8.2,0,0,0,341.834,37.609Z" transform="translate(-322.124 -31.887)" fill="#0a5f87"/>
				<path id="Path_17348" data-name="Path 17348" d="M353.339,45.252a5.64,5.64,0,0,1-1.574-4.3,5.673,5.673,0,0,1,1.584-4.312,6.119,6.119,0,0,1,4.394-1.507,6.186,6.186,0,0,1,4.384,1.466,5.469,5.469,0,0,1,1.574,4.2v.583a.613.613,0,0,1-.634.633h-7.694a2.7,2.7,0,0,0,.72,1.829,2.851,2.851,0,0,0,1.978.572,2.306,2.306,0,0,0,1.859-.613,1.568,1.568,0,0,1,1.236-.623h1.523a.613.613,0,0,1,.633.633q0,2.932-5.589,2.923A6.132,6.132,0,0,1,353.339,45.252Zm2.013-5.385H360.1q-.1-2.412-2.366-2.412T355.352,39.868Z" transform="translate(-324.484 -31.887)" fill="#0a5f87"/>
				<path id="Path_17349" data-name="Path 17349" d="M367.97,45.917V35.974a.615.615,0,0,1,.179-.454.6.6,0,0,1,.444-.179h2.289a.6.6,0,0,1,.444.179.615.615,0,0,1,.179.454v.644a5.723,5.723,0,0,1,3.745-1.482,4.446,4.446,0,0,1,3.234,1.211,4.951,4.951,0,0,1,1.246,3.7v5.866a.607.607,0,0,1-.178.445.619.619,0,0,1-.455.178h-2.279a.61.61,0,0,1-.623-.623V40.051q0-2.441-1.951-2.442a4.085,4.085,0,0,0-2.738,1.461v6.846a.61.61,0,0,1-.623.623h-2.289a.61.61,0,0,1-.623-.623Z" transform="translate(-326.874 -31.887)" fill="#0a5f87"/>
				<path id="Path_17350" data-name="Path 17350" d="M390.047,43.76l1.4-.122h.379a.627.627,0,0,1,.454.173.6.6,0,0,1,.179.45v1.093a.558.558,0,0,1-.179.4.789.789,0,0,1-.454.219,14.609,14.609,0,0,1-2.718.2q-4.394,0-4.394-4.6V31.958a.615.615,0,0,1,.179-.454.6.6,0,0,1,.444-.179h2.289a.6.6,0,0,1,.444.179.615.615,0,0,1,.179.454v3.413H391.1a.612.612,0,0,1,.444.174.6.6,0,0,1,.179.449v1.217a.6.6,0,0,1-.179.449.612.612,0,0,1-.444.174h-2.851v3.75a2.387,2.387,0,0,0,.49,1.61A1.642,1.642,0,0,0,390.047,43.76Z" transform="translate(-329.343 -31.325)" fill="#0a5f87"/>
			</g>
		</g>
		<g id="Group_16780" data-name="Group 16780" transform="translate(-13 1)">
			<path id="Path_17351" data-name="Path 17351" d="M301.878,24.843l-4.548,4.548-2.4-1.2,5.316,5.316.051.052a2.541,2.541,0,0,1-3.593,3.593l-1.774-1.775a2.541,2.541,0,0,0-3.591,0l-1.8,1.8a5.081,5.081,0,0,0,0,7.186h0a2.539,2.539,0,0,1-3.591,3.591h0l-.012-.013-.012-.009c-.01-.01-.019-.022-.029-.034a10.161,10.161,0,0,1,.051-14.317l10.925-10.925a21.924,21.924,0,0,0-17.413,39.87l4.548-4.548,2.4,1.2-5.316-5.316-.052-.051a2.541,2.541,0,1,1,3.593-3.593l1.775,1.774a2.541,2.541,0,0,0,3.591,0l1.8-1.8a5.081,5.081,0,0,0,0-7.186v0a2.539,2.539,0,0,1,3.591-3.591h0l.012.012.01.009c.012.012.02.023.03.034a10.163,10.163,0,0,1-.052,14.318L284.465,64.713a21.924,21.924,0,0,0,17.413-39.87Z" transform="translate(119.253 -4.76)" fill="#fff"/>
		</g>
	</g>
</svg>