<svg xmlns="http://www.w3.org/2000/svg" width="299.477" height="87.547" viewBox="0 0 299.477 87.547">
	<g id="Group_16680" data-name="Group 16680" transform="translate(-810 -134.499)">
		<g id="Group_16652" data-name="Group 16652" transform="translate(422 116.5)">
			<g id="Group_16072" data-name="Group 16072" transform="translate(388 17.999)">
				<g id="Group_16066" data-name="Group 16066" transform="translate(113.251 5.539)">
					<path id="Path_17339" data-name="Path 17339" d="M169.015,58.172l3.067-.269h.829a1.368,1.368,0,0,1,1,.381,1.31,1.31,0,0,1,.392.984v2.4a1.222,1.222,0,0,1-.392.883,1.719,1.719,0,0,1-1,.482,32.19,32.19,0,0,1-5.954.446q-9.626,0-9.626-10.073V32.314a1.35,1.35,0,0,1,.392-1,1.319,1.319,0,0,1,.973-.392h5.015a1.319,1.319,0,0,1,.973.392,1.35,1.35,0,0,1,.392,1v7.479h6.246a1.346,1.346,0,0,1,.973.379,1.314,1.314,0,0,1,.392.986v2.663a1.307,1.307,0,0,1-.392.984,1.34,1.34,0,0,1-.973.381h-6.246V53.4a5.237,5.237,0,0,0,1.074,3.526A3.6,3.6,0,0,0,169.015,58.172Z" transform="translate(-157.331 -30.926)" fill="#2dc84d"/>
					<path id="Path_17340" data-name="Path 17340" d="M170.485,58.11a6.673,6.673,0,0,1-2.966-5.822,6.561,6.561,0,0,1,2.966-5.775,13.34,13.34,0,0,1,7.644-2.015h7.409q0-2.617-1.1-3.648t-3.84-1.031q-2.743,0-3.849,1.356a3.393,3.393,0,0,1-2.719,1.354H170.7a1.351,1.351,0,0,1-1-.392,1.321,1.321,0,0,1-.39-.973q0-6.427,12.2-6.425a14.045,14.045,0,0,1,8.55,2.383q3.224,2.384,3.224,7.376V58.356a1.306,1.306,0,0,1-1.365,1.365H187.6a1.314,1.314,0,0,1-.986-.392,1.349,1.349,0,0,1-.379-.973v-.695a13.61,13.61,0,0,1-8.16,2.518A13.074,13.074,0,0,1,170.485,58.11Zm5.708-7.768a2.452,2.452,0,0,0-.906,1.969,2.484,2.484,0,0,0,.939,1.993,4.048,4.048,0,0,0,2.663.785,12.315,12.315,0,0,0,6.649-2.015V49.58h-6.871A3.727,3.727,0,0,0,176.193,50.342Z" transform="translate(-148.491 -27.618)" fill="#2dc84d"/>
					<path id="Path_17341" data-name="Path 17341" d="M184.263,58.361V36.579a1.357,1.357,0,0,1,.39-1,1.323,1.323,0,0,1,.975-.392h5.013a1.314,1.314,0,0,1,.986.392,1.372,1.372,0,0,1,.381,1v1.41a14.466,14.466,0,0,1,3.168-2.408,7.8,7.8,0,0,1,3.748-.839,8.74,8.74,0,0,1,7.9,4.3q4.163-4.32,8.541-4.309a9.2,9.2,0,0,1,6.916,2.641q2.541,2.631,2.542,8.138v12.85a1.306,1.306,0,0,1-1.367,1.365h-4.991a1.351,1.351,0,0,1-1-.392,1.322,1.322,0,0,1-.392-.973V45.511q0-5.374-3.894-5.351-2.373,0-4.9,3.426a13.9,13.9,0,0,1,.134,1.926v12.85a1.313,1.313,0,0,1-.392.984,1.34,1.34,0,0,1-.973.381h-4.993a1.347,1.347,0,0,1-1-.392,1.322,1.322,0,0,1-.392-.973V45.511q0-5.374-3.894-5.351-2.485,0-4.768,3.2v15a1.313,1.313,0,0,1-.392.984,1.344,1.344,0,0,1-.975.381h-5.013a1.3,1.3,0,0,1-1.365-1.365Z" transform="translate(-133.962 -27.623)" fill="#2dc84d"/>
					<path id="Path_17342" data-name="Path 17342" d="M220.613,58.172l3.067-.269h.829a1.368,1.368,0,0,1,1,.381,1.31,1.31,0,0,1,.392.984v2.4a1.221,1.221,0,0,1-.392.883,1.719,1.719,0,0,1-1,.482,32.188,32.188,0,0,1-5.954.446q-9.626,0-9.626-10.073V32.314a1.35,1.35,0,0,1,.392-1,1.319,1.319,0,0,1,.973-.392h5.015a1.319,1.319,0,0,1,.973.392,1.35,1.35,0,0,1,.392,1v7.479h6.246a1.342,1.342,0,0,1,.973.379,1.314,1.314,0,0,1,.392.986v2.663a1.307,1.307,0,0,1-.392.984,1.336,1.336,0,0,1-.973.381h-6.246V53.4a5.237,5.237,0,0,0,1.074,3.526A3.6,3.6,0,0,0,220.613,58.172Z" transform="translate(-112.559 -30.926)" fill="#2dc84d"/>
					<path id="Path_17343" data-name="Path 17343" d="M222.565,56.9q-3.449-3.267-3.448-9.412t3.468-9.447q3.471-3.3,9.626-3.3t9.6,3.213q3.449,3.211,3.448,9.212v1.276a1.342,1.342,0,0,1-1.388,1.388H227.019a5.912,5.912,0,0,0,1.578,4.006,6.237,6.237,0,0,0,4.331,1.255q2.978,0,4.074-1.345a3.439,3.439,0,0,1,2.708-1.365h3.336a1.339,1.339,0,0,1,1.388,1.388q0,6.427-12.245,6.4Q226.012,60.168,222.565,56.9Zm4.41-11.8h10.409q-.224-5.284-5.183-5.284T226.975,45.1Z" transform="translate(-103.719 -27.618)" fill="#2dc84d"/>
					<path id="Path_17344" data-name="Path 17344" d="M235.321,58.361V36.579a1.351,1.351,0,0,1,.392-1,1.322,1.322,0,0,1,.973-.392H241.7a1.314,1.314,0,0,1,.986.392,1.379,1.379,0,0,1,.379,1v1.41a14.552,14.552,0,0,1,3.168-2.408,7.817,7.817,0,0,1,3.75-.839,8.74,8.74,0,0,1,7.9,4.3q4.163-4.32,8.539-4.309a9.2,9.2,0,0,1,6.918,2.641q2.541,2.631,2.54,8.138v12.85a1.306,1.306,0,0,1-1.365,1.365h-4.992a1.349,1.349,0,0,1-1-.392,1.322,1.322,0,0,1-.392-.973V45.511q0-5.374-3.894-5.351-2.373,0-4.9,3.426a13.918,13.918,0,0,1,.134,1.926v12.85a1.313,1.313,0,0,1-.392.984,1.343,1.343,0,0,1-.973.381h-4.992a1.351,1.351,0,0,1-1-.392,1.329,1.329,0,0,1-.39-.973V45.511q0-5.374-3.9-5.351-2.485,0-4.768,3.2v15a1.319,1.319,0,0,1-.39.984,1.344,1.344,0,0,1-.975.381h-5.015a1.306,1.306,0,0,1-1.365-1.365Z" transform="translate(-89.659 -27.623)" fill="#2dc84d"/>
				</g>
				<path id="Path_17351" data-name="Path 17351" d="M334.9,27.914l-9.08,9.08L321.034,34.6l10.613,10.613.1.1a5.073,5.073,0,0,1-7.174,7.174l-3.542-3.544a5.073,5.073,0,0,0-7.17,0l-3.59,3.592a10.144,10.144,0,0,0,0,14.348l0,0a5.07,5.07,0,0,1-7.17,7.17v0l-.023-.025-.023-.019c-.021-.021-.038-.044-.059-.067a20.287,20.287,0,0,1,.1-28.585L324.91,23.552a43.773,43.773,0,0,0-34.767,79.6l9.08-9.08,4.783,2.391L293.392,85.853l-.1-.1a5.073,5.073,0,1,1,7.174-7.174l3.544,3.542a5.073,5.073,0,0,0,7.17,0l3.59-3.59a10.144,10.144,0,0,0,0-14.348l0,0a5.07,5.07,0,0,1,7.17-7.17h0l.023.023.021.019c.023.023.04.046.061.067a20.291,20.291,0,0,1-.1,28.587l-21.81,21.81a43.773,43.773,0,0,0,34.767-79.6Z" transform="translate(-268.747 -21.761)" fill="#0a5f87"/>
				<g id="Group_16067" data-name="Group 16067" transform="translate(113.252 45.417)">
					<path id="Path_17346" data-name="Path 17346" d="M322.73,58.508a6.672,6.672,0,0,1-2.966-5.82,6.561,6.561,0,0,1,2.966-5.775,13.34,13.34,0,0,1,7.645-2.015h7.409q0-2.62-1.1-3.65a5.6,5.6,0,0,0-3.84-1.029q-2.74,0-3.849,1.354a3.388,3.388,0,0,1-2.719,1.354h-3.336a1.357,1.357,0,0,1-1-.39,1.329,1.329,0,0,1-.39-.975q0-6.424,12.2-6.425a14.041,14.041,0,0,1,8.55,2.385q3.224,2.384,3.224,7.376V58.754a1.3,1.3,0,0,1-1.365,1.365h-4.32a1.312,1.312,0,0,1-.984-.39,1.344,1.344,0,0,1-.381-.975v-.693a13.609,13.609,0,0,1-8.16,2.518A13.074,13.074,0,0,1,322.73,58.508Zm5.708-7.768a2.458,2.458,0,0,0-.906,1.97,2.484,2.484,0,0,0,.939,1.993,4.06,4.06,0,0,0,2.665.783,12.306,12.306,0,0,0,6.647-2.013V49.979h-6.871A3.736,3.736,0,0,0,328.438,50.74Z" transform="translate(-319.764 -28.018)" fill="#0a5f87"/>
					<path id="Path_17347" data-name="Path 17347" d="M338.888,55.172q-3.124-3.065-3.123-8.506a10.568,10.568,0,0,1,3.558-8.485q3.561-3.043,10.209-3.044a32.973,32.973,0,0,1,6.737.728,17.69,17.69,0,0,1,5.261,1.78V58.373q0,4.993-3.291,7.378t-9.234,2.383q-5.942,0-9.156-1.489a5.064,5.064,0,0,1-3.212-4.914,1.342,1.342,0,0,1,1.388-1.388h3.336a3.146,3.146,0,0,1,2.574,1.186q1.233,1.524,4.378,1.522t4.309-1.029q1.163-1.028,1.164-3.65V57.322a27.012,27.012,0,0,1-6.694.919A11.2,11.2,0,0,1,338.888,55.172Zm10.173-14.617q-5.306-.022-5.306,6.123t5.172,6.145a20.392,20.392,0,0,0,4.858-.672v-11.1A17.968,17.968,0,0,0,349.061,40.554Z" transform="translate(-305.88 -28.018)" fill="#0a5f87"/>
					<path id="Path_17348" data-name="Path 17348" d="M355.213,57.3q-3.446-3.267-3.448-9.414t3.47-9.447q3.471-3.3,9.626-3.3t9.6,3.213q3.446,3.214,3.448,9.212v1.278a1.342,1.342,0,0,1-1.39,1.388H359.667a5.925,5.925,0,0,0,1.578,4.006,6.245,6.245,0,0,0,4.333,1.253q2.975,0,4.074-1.343a3.436,3.436,0,0,1,2.708-1.365H375.7a1.342,1.342,0,0,1,1.388,1.388q0,6.424-12.245,6.4Q358.662,60.568,355.213,57.3Zm4.41-11.8h10.411q-.224-5.284-5.183-5.284T359.623,45.5Z" transform="translate(-291.997 -28.018)" fill="#0a5f87"/>
					<path id="Path_17349" data-name="Path 17349" d="M367.97,58.754V36.972a1.347,1.347,0,0,1,.392-1,1.319,1.319,0,0,1,.973-.392h5.015a1.32,1.32,0,0,1,.973.392,1.347,1.347,0,0,1,.392,1v1.41a12.538,12.538,0,0,1,8.2-3.246A9.74,9.74,0,0,1,391,37.79q2.731,2.653,2.731,8.114v12.85a1.329,1.329,0,0,1-.39.975,1.357,1.357,0,0,1-1,.39h-4.992a1.337,1.337,0,0,1-1.365-1.365V45.9q0-5.348-4.275-5.349-2.8,0-6,3.2v15a1.337,1.337,0,0,1-1.365,1.365h-5.015a1.337,1.337,0,0,1-1.365-1.365Z" transform="translate(-277.935 -28.018)" fill="#0a5f87"/>
					<path id="Path_17350" data-name="Path 17350" d="M396.4,58.569l3.067-.267h.829a1.374,1.374,0,0,1,1,.379,1.314,1.314,0,0,1,.392.986v2.395a1.222,1.222,0,0,1-.392.885,1.728,1.728,0,0,1-1,.48,32,32,0,0,1-5.954.448q-9.626,0-9.626-10.075V32.713a1.347,1.347,0,0,1,.392-1,1.317,1.317,0,0,1,.973-.392h5.015a1.322,1.322,0,0,1,.973.392,1.347,1.347,0,0,1,.392,1V40.19h6.246a1.34,1.34,0,0,1,.973.381,1.313,1.313,0,0,1,.392.984V44.22a1.313,1.313,0,0,1-.392.984,1.34,1.34,0,0,1-.973.381H392.46V53.8a5.23,5.23,0,0,0,1.074,3.526A3.6,3.6,0,0,0,396.4,58.569Z" transform="translate(-263.406 -31.325)" fill="#0a5f87"/>
				</g>
			</g>
		</g>
	</g>
</svg>