<svg xmlns="http://www.w3.org/2000/svg" width="73.924" height="60.896" viewBox="0 0 73.924 60.896"><path id="Path_17141" data-name="Path 17141" d="M52 121H12a2.5 2.5 0 01-2.392-1.773L.109 87.978A2.5 2.5 0 013.6 85l13.68 6.66 12.836-14.8a2.5 2.5 0 013.777 0l12.836 14.8L60.4 85a2.5 2.5 0 013.486 2.975l-9.5 31.249A2.5 2.5 0 0152 121zm-38.146-5h36.292l7.294-23.993L47.188 97a2.5 2.5 0 01-2.983-.61L32 82.316 19.795 96.389a2.5 2.5 0 01-2.983.61L6.56 92.007z" transform="rotate(-16 -207.63 46.821)" fill="#faef8a"/></svg>